<svg xmlns="http://www.w3.org/2000/svg" width="1200" height="1600">
  <style>
    .box { fill:#f5f5f5; stroke:#333; stroke-width:2; }
    .header { fill:#e0e0e0; }
    .title { font-family:Segoe UI, Arial; font-size:22px; font-weight:bold; }
    .label { font-family:Segoe UI, Arial; font-size:16px; }
  </style>

  <!-- Header -->
  <rect class="box header" x="80" y="60" width="1040" height="80" rx="8"/>
  <text class="title" x="110" y="110">HEADER – UMKM</text>

  <!-- Hero -->
  <rect class="box" x="80" y="170" width="1040" height="220" rx="8"/>
  <text class="title" x="110" y="210">HERO UMKM</text>
  <text class="label" x="110" y="240">Judul "UMKM Dukuh" + subjudul</text>

  <!-- Intro -->
  <rect class="box" x="80" y="420" width="1040" height="140" rx="8"/>
  <text class="title" x="110" y="460">INTRO UMKM</text>
  <text class="label" x="110" y="490">Paragraf tentang UMKM dukuh</text>

  <!-- Grid UMKM -->
  <rect class="box" x="80" y="590" width="1040" height="500" rx="8"/>
  <text class="title" x="110" y="630">GRID DATA UMKM</text>
  <rect class="box" x="110" y="660" width="300" height="190" rx="6"/>
  <rect class="box" x="450" y="660" width="300" height="190" rx="6"/>
  <rect class="box" x="790" y="660" width="300" height="190" rx="6"/>

  <!-- Footer -->
  <rect class="box header" x="80" y="1130" width="1040" height="180" rx="8"/>
  <text class="title" x="110" y="1170">FOOTER</text>
  <text class="label" x="110" y="1200">Tentang Kami | Kontak | Ikuti Kami</text>
  <text class="label" x="110" y="1240">©2026 KKN UAD R 155 I.D.3 | Dukuh Banaran Kidul.</text>
</svg>
